<svg xmlns="http://www.w3.org/2000/svg" viewBox="0 0 600 900" width="600" height="900" role="img" aria-label="Rainbow sandals"><rect x="212" y="854" width="92" height="26" rx="12" fill="#FFD86B" stroke="#3B2A5E" stroke-width="6" stroke-linejoin="round" stroke-linecap="round" /><path d="M218 856 q 40 -52 80 0" fill="none" stroke="#E8735F" stroke-width="9" stroke-linecap="round"/><path d="M218 856 q 40 -46 80 0" fill="none" stroke="#FFD86B" stroke-width="9" stroke-linecap="round"/><path d="M218 856 q 40 -40 80 0" fill="none" stroke="#7FCDB0" stroke-width="9" stroke-linecap="round"/><path d="M218 856 q 40 -34 80 0" fill="none" stroke="#4C7DE0" stroke-width="9" stroke-linecap="round"/><path d="M218 856 q 40 -28 80 0" fill="none" stroke="#C9B6F0" stroke-width="9" stroke-linecap="round"/><path d="M218 856 q 40 -52 80 0" fill="none" stroke="#3B2A5E" stroke-width="4" stroke-linecap="round" opacity="0.5"/><rect x="296" y="854" width="92" height="26" rx="12" fill="#FFD86B" stroke="#3B2A5E" stroke-width="6" stroke-linejoin="round" stroke-linecap="round" /><path d="M302 856 q 40 -52 80 0" fill="none" stroke="#E8735F" stroke-width="9" stroke-linecap="round"/><path d="M302 856 q 40 -46 80 0" fill="none" stroke="#FFD86B" stroke-width="9" stroke-linecap="round"/><path d="M302 856 q 40 -40 80 0" fill="none" stroke="#7FCDB0" stroke-width="9" stroke-linecap="round"/><path d="M302 856 q 40 -34 80 0" fill="none" stroke="#4C7DE0" stroke-width="9" stroke-linecap="round"/><path d="M302 856 q 40 -28 80 0" fill="none" stroke="#C9B6F0" stroke-width="9" stroke-linecap="round"/><path d="M302 856 q 40 -52 80 0" fill="none" stroke="#3B2A5E" stroke-width="4" stroke-linecap="round" opacity="0.5"/></svg>
