<svg xmlns="http://www.w3.org/2000/svg" viewBox="110 300 380 380" width="380" height="380" role="img" aria-label="Cloud pyjamas"><rect x="110" y="300" width="380" height="380" fill="#FFFFFF"/><line x1="212" y1="360" x2="163.64" y2="516" stroke="#3B2A5E" stroke-width="58" stroke-linecap="round"/><line x1="212" y1="360" x2="163.64" y2="516" stroke="#BFE3F5" stroke-width="46" stroke-linecap="round"/><line x1="388" y1="360" x2="436.36" y2="516" stroke="#3B2A5E" stroke-width="58" stroke-linecap="round"/><line x1="388" y1="360" x2="436.36" y2="516" stroke="#BFE3F5" stroke-width="46" stroke-linecap="round"/><path d="M195 346 q 20 -20 50 -12 q 55 20 110 0 q 30 -8 50 12 l 30 80 l -45 18 l -10 -20 v 90 h -170 v -90 l -10 20 l -45 -18 z" fill="#BFE3F5" stroke="#3B2A5E" stroke-width="6" stroke-linejoin="round" stroke-linecap="round" /><path d="M270 344 q 30 24 60 0" stroke="#3B2A5E" stroke-width="5" stroke-linecap="round" fill="none"/><path d="M223 488 h 154 v 120 q 0 20 -20 20 h -50 q -10 0 -10 -10 v -70 h -20 v 70 q 0 10 -10 10 h -50 q -20 0 -20 -20 z" fill="#BFE3F5" stroke="#3B2A5E" stroke-width="6" stroke-linejoin="round" stroke-linecap="round" /><line x1="235" y1="500" x2="365" y2="500" stroke="#9CCDE8" stroke-width="5" stroke-linecap="round"/><path transform="translate(260 408) scale(0.9)" d="M-24 8 a 12 12 0 0 1 12 -14 a 14 14 0 0 1 26 -4 a 12 12 0 0 1 14 18 z" fill="#FFFFFF" stroke="#3B2A5E" stroke-width="3" stroke-linejoin="round"/><path transform="translate(346 438) scale(0.7)" d="M-24 8 a 12 12 0 0 1 12 -14 a 14 14 0 0 1 26 -4 a 12 12 0 0 1 14 18 z" fill="#FFFFFF" stroke="#3B2A5E" stroke-width="3" stroke-linejoin="round"/><path transform="translate(254 558) scale(0.7)" d="M-24 8 a 12 12 0 0 1 12 -14 a 14 14 0 0 1 26 -4 a 12 12 0 0 1 14 18 z" fill="#FFFFFF" stroke="#3B2A5E" stroke-width="3" stroke-linejoin="round"/><path transform="translate(350 588) scale(0.6)" d="M-24 8 a 12 12 0 0 1 12 -14 a 14 14 0 0 1 26 -4 a 12 12 0 0 1 14 18 z" fill="#FFFFFF" stroke="#3B2A5E" stroke-width="3" stroke-linejoin="round"/></svg>
