<svg xmlns="http://www.w3.org/2000/svg" viewBox="120 20 360 360" width="360" height="360" role="img" aria-label="Star hair clip"><rect x="120" y="20" width="360" height="360" fill="#FFFFFF"/><ellipse cx="300" cy="200" rx="112" ry="118" fill="#F5C9A8" stroke="#3B2A5E" stroke-width="6" stroke-linejoin="round" stroke-linecap="round" /><circle cx="182" cy="82" r="52" fill="#7A4A2E" stroke="#3B2A5E" stroke-width="6" stroke-linejoin="round" stroke-linecap="round" /><circle cx="418" cy="82" r="52" fill="#7A4A2E" stroke="#3B2A5E" stroke-width="6" stroke-linejoin="round" stroke-linecap="round" /><path d="M160 60 a 30 30 0 0 1 44 -8" stroke="#9C6A46" stroke-width="7" fill="none" stroke-linecap="round"/><path d="M396 60 a 30 30 0 0 1 44 -8" stroke="#9C6A46" stroke-width="7" fill="none" stroke-linecap="round"/><path d="M180 190 q 8 -140 120 -140 q 112 0 120 140 q -30 -40 -70 -50 q -30 30 -60 20 q -40 -10 -60 20 q -20 -30 -46 10 z" fill="#7A4A2E" stroke="#3B2A5E" stroke-width="6" stroke-linejoin="round" stroke-linecap="round" /><path d="M240 100 q 40 -18 80 -4" stroke="#9C6A46" stroke-width="8" stroke-linecap="round" fill="none"/><path d="M184 210 q -14 40 6 80" stroke="#7A4A2E" stroke-width="12" stroke-linecap="round" fill="none"/><path d="M416 210 q 14 40 -6 80" stroke="#7A4A2E" stroke-width="12" stroke-linecap="round" fill="none"/><polygon points="384.0,78.0 390.9,94.5 408.7,96.0 395.1,107.6 399.3,125.0 384.0,115.7 368.7,125.0 372.9,107.6 359.3,96.0 377.1,94.5" fill="#FFD86B" stroke="#3B2A5E" stroke-width="4" stroke-linejoin="round"/></svg>
