<svg xmlns="http://www.w3.org/2000/svg" viewBox="0 0 600 900" width="600" height="900" role="img" aria-label="Loose brown hair with a clip"><path d="M158 160 q -30 160 20 300 q 40 20 70 -10 q -20 -120 -10 -200 z" fill="#7A4A2E" stroke="#3B2A5E" stroke-width="6" stroke-linejoin="round" stroke-linecap="round" /><path d="M442 160 q 30 160 -20 300 q -40 20 -70 -10 q 20 -120 10 -200 z" fill="#7A4A2E" stroke="#3B2A5E" stroke-width="6" stroke-linejoin="round" stroke-linecap="round" /><path d="M180 190 q 8 -140 120 -140 q 112 0 120 140 q -30 -40 -70 -50 q -30 30 -60 20 q -40 -10 -60 20 q -20 -30 -46 10 z" fill="#7A4A2E" stroke="#3B2A5E" stroke-width="6" stroke-linejoin="round" stroke-linecap="round" /><path d="M240 100 q 40 -18 80 -4" stroke="#9C6A46" stroke-width="8" stroke-linecap="round" fill="none"/><path d="M178 240 q -10 100 10 180" stroke="#9C6A46" stroke-width="8" fill="none" stroke-linecap="round"/><path d="M422 240 q 10 100 -10 180" stroke="#9C6A46" stroke-width="8" fill="none" stroke-linecap="round"/><rect x="362" y="104" width="44" height="18" rx="9" fill="#C9B6F0" stroke="#3B2A5E" stroke-width="6" stroke-linejoin="round" stroke-linecap="round" transform="rotate(-25 384 113)"/></svg>
