<svg xmlns="http://www.w3.org/2000/svg" viewBox="150 700 300 220" width="300" height="220" role="img" aria-label="Pink mary-janes"><rect x="150" y="700" width="300" height="220" fill="#FFFFFF"/><line x1="258" y1="700" x2="258" y2="828" stroke="#3B2A5E" stroke-width="66" stroke-linecap="round"/><line x1="258" y1="700" x2="258" y2="828" stroke="#F5C9A8" stroke-width="54" stroke-linecap="round"/><line x1="342" y1="700" x2="342" y2="828" stroke="#3B2A5E" stroke-width="66" stroke-linecap="round"/><line x1="342" y1="700" x2="342" y2="828" stroke="#F5C9A8" stroke-width="54" stroke-linecap="round"/><rect x="228" y="740" width="60" height="80" rx="18" fill="#FFFFFF" stroke="#3B2A5E" stroke-width="6" stroke-linejoin="round" stroke-linecap="round" /><line x1="234" y1="762" x2="282" y2="762" stroke="#FFFFFF" stroke-width="5"/><rect x="312" y="740" width="60" height="80" rx="18" fill="#FFFFFF" stroke="#3B2A5E" stroke-width="6" stroke-linejoin="round" stroke-linecap="round" /><line x1="318" y1="762" x2="366" y2="762" stroke="#FFFFFF" stroke-width="5"/><path d="M212 830 q 0 -30 30 -30 h 32 q 30 0 30 30 v 30 q 0 20 -20 20 h -52 q -20 0 -20 -20 z" fill="#F5B5C8" stroke="#3B2A5E" stroke-width="6" stroke-linejoin="round" stroke-linecap="round" /><rect x="224" y="830" width="68" height="10" rx="5" fill="#F5B5C8" stroke="#3B2A5E" stroke-width="4"/><path d="M296 830 q 0 -30 30 -30 h 32 q 30 0 30 30 v 30 q 0 20 -20 20 h -52 q -20 0 -20 -20 z" fill="#F5B5C8" stroke="#3B2A5E" stroke-width="6" stroke-linejoin="round" stroke-linecap="round" /><rect x="308" y="830" width="68" height="10" rx="5" fill="#F5B5C8" stroke="#3B2A5E" stroke-width="4"/></svg>
