<svg xmlns="http://www.w3.org/2000/svg" viewBox="0 0 600 900" width="600" height="900" role="img" aria-label="Star hoodie with trousers"><line x1="212" y1="360" x2="163.64" y2="516" stroke="#3B2A5E" stroke-width="58" stroke-linecap="round"/><line x1="212" y1="360" x2="163.64" y2="516" stroke="#3F3A7A" stroke-width="46" stroke-linecap="round"/><line x1="388" y1="360" x2="436.36" y2="516" stroke="#3B2A5E" stroke-width="58" stroke-linecap="round"/><line x1="388" y1="360" x2="436.36" y2="516" stroke="#3F3A7A" stroke-width="46" stroke-linecap="round"/><path d="M195 346 q 20 -20 50 -12 q 55 20 110 0 q 30 -8 50 12 l 30 80 l -45 18 l -10 -20 v 90 h -170 v -90 l -10 20 l -45 -18 z" fill="#3F3A7A" stroke="#3B2A5E" stroke-width="6" stroke-linejoin="round" stroke-linecap="round" /><path d="M270 344 q 30 24 60 0" stroke="#3B2A5E" stroke-width="5" stroke-linecap="round" fill="none"/><path d="M230 348 q 70 40 140 0 q -20 30 -70 34 q -50 -4 -70 -34 z" fill="#3F3A7A" stroke="#3B2A5E" stroke-width="6" stroke-linejoin="round" stroke-linecap="round" /><polygon points="260.0,398.0 262.6,404.4 269.5,404.9 264.3,409.4 265.9,416.1 260.0,412.5 254.1,416.1 255.7,409.4 250.5,404.9 257.4,404.4" fill="#FFD86B" /><polygon points="334.0,422.0 337.2,429.6 345.4,430.3 339.1,435.7 341.1,443.7 334.0,439.4 326.9,443.7 328.9,435.7 322.6,430.3 330.8,429.6" fill="#FFD86B" /><polygon points="310.0,377.0 311.9,381.5 316.7,381.8 313.0,385.0 314.1,389.7 310.0,387.1 305.9,389.7 307.0,385.0 303.3,381.8 308.1,381.5" fill="#FFD86B" /><path d="M223 488 h 154 v 120 q 0 20 -20 20 h -50 q -10 0 -10 -10 v -70 h -20 v 70 q 0 10 -10 10 h -50 q -20 0 -20 -20 z" fill="#B9A6E8" stroke="#3B2A5E" stroke-width="6" stroke-linejoin="round" stroke-linecap="round" /><line x1="235" y1="500" x2="365" y2="500" stroke="#C9B6F0" stroke-width="5" stroke-linecap="round"/></svg>
